<?xml version="1.0" standalone="no"?><!DOCTYPE svg PUBLIC "-//W3C//DTD SVG 1.1//EN" "http://www.w3.org/Graphics/SVG/1.1/DTD/svg11.dtd"><svg t="1558886842195" class="icon" style="" viewBox="0 0 1024 1024" version="1.1" xmlns="http://www.w3.org/2000/svg" p-id="3081" xmlns:xlink="http://www.w3.org/1999/xlink" width="200" height="200"><defs><style type="text/css"></style></defs><path d="M883.170163 481.367521H110.993007" fill="" p-id="3082"></path><path d="M110.993007 357.246309h772.177156v19.095571H110.993007z" fill="#F2F2F2" p-id="3083"></path><path d="M110.993007 376.34188h772.177156v19.095571H110.993007z" fill="" p-id="3084"></path><path d="M110.993007 395.437451h772.177156v19.095572H110.993007z" fill="#F2F2F2" p-id="3085"></path><path d="M110.993007 414.533023h772.177156v19.095571H110.993007z" fill="" p-id="3086"></path><path d="M110.993007 433.628594h772.177156v19.095571H110.993007z" fill="#F2F2F2" p-id="3087"></path><path d="M110.993007 452.724165h772.177156v19.095571H110.993007z" fill="" p-id="3088"></path><path d="M110.993007 471.819736h772.177156v19.095571H110.993007z" fill="#F2F2F2" p-id="3089"></path><path d="M110.993007 490.915307h772.177156v19.095571H110.993007z" fill="" p-id="3090"></path><path d="M110.993007 510.010878h772.177156v19.095571H110.993007z" fill="#F2F2F2" p-id="3091"></path><path d="M110.993007 529.106449h772.177156v19.095571H110.993007z" fill="" p-id="3092"></path><path d="M110.993007 548.20202h772.177156v19.095571H110.993007zM110.993007 586.393162h772.177156v19.095571H110.993007z" fill="#F2F2F2" p-id="3093"></path><path d="M110.993007 567.297591h772.177156v19.095571H110.993007z" fill="" p-id="3094"></path><path d="M200.503497 0v1024" fill="" p-id="3095"></path><path d="M76.382284 0h19.095571v1024H76.382284z" fill="#F2F2F2" p-id="3096"></path><path d="M95.477855 0h19.095572v1024H95.477855z" fill="" p-id="3097"></path><path d="M114.573427 0h19.095571v1024H114.573427z" fill="#F2F2F2" p-id="3098"></path><path d="M133.668998 0h19.095571v1024h-19.095571z" fill="" p-id="3099"></path><path d="M152.764569 0H171.86014v1024h-19.095571z" fill="#F2F2F2" p-id="3100"></path><path d="M171.86014 0h19.095571v1024H171.86014z" fill="" p-id="3101"></path><path d="M190.955711 0h19.095571v1024h-19.095571z" fill="#F2F2F2" p-id="3102"></path><path d="M210.051282 0h19.095571v1024h-19.095571z" fill="" p-id="3103"></path><path d="M229.146853 0h19.095571v1024h-19.095571z" fill="#F2F2F2" p-id="3104"></path><path d="M248.242424 0H267.337995v1024h-19.095571z" fill="" p-id="3105"></path><path d="M267.337995 0h19.095571v1024H267.337995zM305.529138 0h19.095571v1024h-19.095571z" fill="#F2F2F2" p-id="3106"></path><path d="M286.433566 0h19.095572v1024h-19.095572z" fill="" p-id="3107"></path><path d="M823.496503 0v1024" fill="" p-id="3108"></path><path d="M699.375291 0h19.095571v1024h-19.095571z" fill="#F2F2F2" p-id="3109"></path><path d="M718.470862 0h19.095572v1024h-19.095572z" fill="" p-id="3110"></path><path d="M737.566434 0h19.095571v1024h-19.095571z" fill="#F2F2F2" p-id="3111"></path><path d="M756.662005 0h19.095571v1024H756.662005z" fill="" p-id="3112"></path><path d="M775.757576 0h19.095571v1024h-19.095571z" fill="#F2F2F2" p-id="3113"></path><path d="M794.853147 0h19.095571v1024h-19.095571z" fill="" p-id="3114"></path><path d="M813.948718 0h19.095571v1024h-19.095571z" fill="#F2F2F2" p-id="3115"></path><path d="M833.044289 0h19.095571v1024h-19.095571z" fill="" p-id="3116"></path><path d="M852.13986 0h19.095571v1024H852.13986z" fill="#F2F2F2" p-id="3117"></path><path d="M871.235431 0h19.095571v1024h-19.095571z" fill="" p-id="3118"></path><path d="M890.331002 0h19.095571v1024h-19.095571zM928.522145 0h19.095571v1024h-19.095571z" fill="#F2F2F2" p-id="3119"></path><path d="M909.426573 0h19.095572v1024h-19.095572z" fill="" p-id="3120"></path></svg>